<svg width="49" height="47" viewBox="0 0 49 47" fill="none" xmlns="http://www.w3.org/2000/svg">
<rect width="49" height="46.8696" rx="23.4348" fill="white"/>
<path d="M12.294 23.4327C11.4112 23.4327 10.5645 23.7834 9.94019 24.4077C9.31592 25.0319 8.96521 25.8786 8.96521 26.7615V27.1313C8.96521 27.1313 8.96521 33.789 17.842 33.789C26.7188 33.789 26.7188 27.1313 26.7188 27.1313V26.7615C26.7188 25.8786 26.3681 25.0319 25.7439 24.4077C25.1196 23.7834 24.2729 23.4327 23.39 23.4327H12.294Z" fill="url(#paint0_linear_1_692)"/>
<path d="M12.294 23.4327C11.4112 23.4327 10.5645 23.7834 9.94019 24.4077C9.31592 25.0319 8.96521 25.8786 8.96521 26.7615V27.1313C8.96521 27.1313 8.96521 33.789 17.842 33.789C26.7188 33.789 26.7188 27.1313 26.7188 27.1313V26.7615C26.7188 25.8786 26.3681 25.0319 25.7439 24.4077C25.1196 23.7834 24.2729 23.4327 23.39 23.4327H12.294Z" fill="url(#paint1_linear_1_692)"/>
<path d="M12.294 23.4327C11.4112 23.4327 10.5645 23.7834 9.94019 24.4077C9.31592 25.0319 8.96521 25.8786 8.96521 26.7615V27.1313C8.96521 27.1313 8.96521 33.789 17.842 33.789C26.7188 33.789 26.7188 27.1313 26.7188 27.1313V26.7615C26.7188 25.8786 26.3681 25.0319 25.7438 24.4077C25.1196 23.7834 24.2729 23.4327 23.39 23.4327H12.294Z" fill="url(#paint2_linear_1_692)"/>
<path d="M31.1573 20.4742C32.3344 20.4742 33.4633 20.0066 34.2957 19.1742C35.1281 18.3419 35.5957 17.213 35.5957 16.0358C35.5957 14.8587 35.1281 13.7298 34.2957 12.8974C33.4633 12.065 32.3344 11.5974 31.1573 11.5974C29.9801 11.5974 28.8512 12.065 28.0189 12.8974C27.1865 13.7298 26.7189 14.8587 26.7189 16.0358C26.7189 17.213 27.1865 18.3419 28.0189 19.1742C28.8512 20.0066 29.9801 20.4742 31.1573 20.4742Z" fill="url(#paint3_linear_1_692)"/>
<path d="M17.8416 20.4747C19.4111 20.4747 20.9163 19.8512 22.0261 18.7414C23.136 17.6316 23.7595 16.1264 23.7595 14.5569C23.7595 12.9873 23.136 11.4821 22.0261 10.3723C20.9163 9.26247 19.4111 8.63898 17.8416 8.63898C16.2721 8.63898 14.7668 9.26247 13.657 10.3723C12.5472 11.4821 11.9237 12.9873 11.9237 14.5569C11.9237 16.1264 12.5472 17.6316 13.657 18.7414C14.7668 19.8512 16.2721 20.4747 17.8416 20.4747Z" fill="url(#paint4_linear_1_692)"/>
<path d="M31.8982 38.2306C33.6837 38.2302 35.4195 37.6426 36.8381 36.5584C38.2568 35.4743 39.2795 33.9537 39.7487 32.2309C40.218 30.5082 40.1077 28.679 39.4348 27.0251C38.762 25.3712 37.5639 23.9845 36.0253 23.0787C34.4866 22.1728 32.6928 21.7981 30.9202 22.0122C29.1476 22.2264 27.4946 23.0175 26.2159 24.2637C24.9373 25.5099 24.1039 27.142 23.8442 28.9085C23.5846 30.675 23.913 32.4778 24.779 34.0393L23.7937 37.2734C23.7542 37.4018 23.7505 37.5385 23.7828 37.6688C23.8152 37.7991 23.8824 37.9182 23.9773 38.0132C24.0722 38.1083 24.1912 38.1757 24.3214 38.2083C24.4517 38.2408 24.5884 38.2373 24.7169 38.1981L27.9524 37.2127C29.1212 37.8622 30.4675 38.2306 31.8982 38.2306Z" fill="url(#paint5_linear_1_692)"/>
<path d="M28.9386 29.3531C28.7424 29.3531 28.5542 29.2752 28.4155 29.1365C28.2768 28.9977 28.1989 28.8096 28.1989 28.6134C28.1989 28.4172 28.2768 28.229 28.4155 28.0903C28.5542 27.9516 28.7424 27.8737 28.9386 27.8737H34.8594C35.0556 27.8737 35.2438 27.9516 35.3825 28.0903C35.5212 28.229 35.5992 28.4172 35.5992 28.6134C35.5992 28.8096 35.5212 28.9977 35.3825 29.1365C35.2438 29.2752 35.0556 29.3531 34.8594 29.3531H28.9386ZM31.899 32.3121H28.9401C28.7439 32.3121 28.5557 32.2341 28.417 32.0954C28.2783 31.9567 28.2003 31.7685 28.2003 31.5723C28.2003 31.3761 28.2783 31.188 28.417 31.0493C28.5557 30.9105 28.7439 30.8326 28.9401 30.8326H31.899C32.0952 30.8326 32.2833 30.9105 32.4221 31.0493C32.5608 31.188 32.6387 31.3761 32.6387 31.5723C32.6387 31.7685 32.5608 31.9567 32.4221 32.0954C32.2833 32.2341 32.0952 32.3121 31.899 32.3121Z" fill="#212121"/>
<path d="M28.9386 29.3531C28.7424 29.3531 28.5542 29.2752 28.4155 29.1365C28.2768 28.9977 28.1989 28.8096 28.1989 28.6134C28.1989 28.4172 28.2768 28.229 28.4155 28.0903C28.5542 27.9516 28.7424 27.8737 28.9386 27.8737H34.8594C35.0556 27.8737 35.2438 27.9516 35.3825 28.0903C35.5212 28.229 35.5992 28.4172 35.5992 28.6134C35.5992 28.8096 35.5212 28.9977 35.3825 29.1365C35.2438 29.2752 35.0556 29.3531 34.8594 29.3531H28.9386ZM31.899 32.3121H28.9401C28.7439 32.3121 28.5557 32.2341 28.417 32.0954C28.2783 31.9567 28.2003 31.7685 28.2003 31.5723C28.2003 31.3761 28.2783 31.188 28.417 31.0493C28.5557 30.9105 28.7439 30.8326 28.9401 30.8326H31.899C32.0952 30.8326 32.2833 30.9105 32.4221 31.0493C32.5608 31.188 32.6387 31.3761 32.6387 31.5723C32.6387 31.7685 32.5608 31.9567 32.4221 32.0954C32.2833 32.2341 32.0952 32.3121 31.899 32.3121Z" fill="url(#paint6_linear_1_692)"/>
<defs>
<linearGradient id="paint0_linear_1_692" x1="13.1876" y1="24.8101" x2="16.9691" y2="35.1604" gradientUnits="userSpaceOnUse">
<stop offset="0.125" stop-color="#BD96FF"/>
<stop offset="1" stop-color="#9C6CFE"/>
</linearGradient>
<linearGradient id="paint1_linear_1_692" x1="17.842" y1="22.2003" x2="23.1785" y2="39.2941" gradientUnits="userSpaceOnUse">
<stop stop-color="#885EDB" stop-opacity="0"/>
<stop offset="1" stop-color="#E362F8"/>
</linearGradient>
<linearGradient id="paint2_linear_1_692" x1="17.842" y1="23.4327" x2="17.842" y2="33.789" gradientUnits="userSpaceOnUse">
<stop stop-color="#109932"/>
<stop offset="1" stop-color="#047420"/>
</linearGradient>
<linearGradient id="paint3_linear_1_692" x1="28.8301" y1="12.778" x2="33.3543" y2="20.0008" gradientUnits="userSpaceOnUse">
<stop offset="0.125" stop-color="#008621"/>
<stop offset="1" stop-color="#109932"/>
</linearGradient>
<linearGradient id="paint4_linear_1_692" x1="14.7377" y1="10.2117" x2="20.7709" y2="19.8445" gradientUnits="userSpaceOnUse">
<stop offset="0.125" stop-color="#109932"/>
<stop offset="1" stop-color="#1CBC44"/>
</linearGradient>
<linearGradient id="paint5_linear_1_692" x1="24.3411" y1="25.0056" x2="38.5514" y2="49.2334" gradientUnits="userSpaceOnUse">
<stop stop-color="#00701C"/>
<stop offset="1" stop-color="#109932"/>
</linearGradient>
<linearGradient id="paint6_linear_1_692" x1="28.8469" y1="27.9521" x2="29.2966" y2="32.7825" gradientUnits="userSpaceOnUse">
<stop stop-color="#FDFDFD"/>
<stop offset="1" stop-color="#CCEAFF"/>
</linearGradient>
</defs>
</svg>
