<svg width="29" height="30" viewBox="0 0 29 30" fill="none" xmlns="http://www.w3.org/2000/svg">
<g clip-path="url(#clip0_11_268)">
<path d="M14.5909 29.0909C22.3731 29.0909 28.6818 22.7822 28.6818 15C28.6818 7.21781 22.3731 0.909092 14.5909 0.909092C6.80871 0.909092 0.5 7.21781 0.5 15C0.5 22.7822 6.80871 29.0909 14.5909 29.0909Z" fill="#F0F0F0"/>
<path d="M3.41364 6.42201C2.30679 7.86209 1.47218 9.5219 0.986206 11.325H8.31667L3.41364 6.42201Z" fill="#0052B4"/>
<path d="M28.1966 11.325C27.7106 9.5219 26.8759 7.86209 25.7691 6.42201L20.8662 11.325H28.1966Z" fill="#0052B4"/>
<path d="M0.986206 18.6772C1.47223 20.4803 2.30684 22.1401 3.41364 23.5802L8.31651 18.6772H0.986206Z" fill="#0052B4"/>
<path d="M23.1712 3.82273C21.7311 2.71588 20.0713 1.88127 18.2682 1.39524V8.72565L23.1712 3.82273Z" fill="#0052B4"/>
<path d="M6.01294 26.1781C7.45302 27.285 9.11283 28.1196 10.9159 28.6056V21.2753L6.01294 26.1781Z" fill="#0052B4"/>
<path d="M10.9159 1.39524C9.11277 1.88127 7.45296 2.71588 6.01294 3.82268L10.9159 8.7256V1.39524Z" fill="#0052B4"/>
<path d="M18.2682 28.6056C20.0713 28.1196 21.7311 27.285 23.1711 26.1782L18.2682 21.2753V28.6056Z" fill="#0052B4"/>
<path d="M20.8662 18.6772L25.7691 23.5802C26.8759 22.1402 27.7106 20.4803 28.1966 18.6772H20.8662Z" fill="#0052B4"/>
<path d="M28.5625 13.1621H16.4289H16.4289V1.02837C15.8272 0.950044 15.2138 0.909092 14.5909 0.909092C13.9679 0.909092 13.3546 0.950044 12.753 1.02837V13.162V13.162H0.619277C0.540952 13.7637 0.5 14.3771 0.5 15C0.5 15.623 0.540952 16.2363 0.619277 16.8379H12.7529H12.7529V28.9716C13.3546 29.05 13.9679 29.0909 14.5909 29.0909C15.2138 29.0909 15.8272 29.05 16.4288 28.9716V16.838V16.838H28.5625C28.6409 16.2363 28.6818 15.623 28.6818 15C28.6818 14.3771 28.6409 13.7637 28.5625 13.1621Z" fill="#D80027"/>
<path d="M18.2664 18.6755L24.5542 24.9634C24.8434 24.6743 25.1193 24.372 25.3825 24.0587L19.9992 18.6755H18.2664V18.6755Z" fill="#D80027"/>
<path d="M10.9147 18.6755H10.9146L4.62683 24.9633C4.91591 25.2525 5.21815 25.5283 5.53146 25.7915L10.9147 20.4082V18.6755Z" fill="#D80027"/>
<path d="M10.9146 11.3239V11.3238L4.62674 5.03591C4.33755 5.325 4.06168 5.62723 3.79846 5.94054L9.18179 11.3239H10.9146V11.3239Z" fill="#D80027"/>
<path d="M18.2664 11.3237L24.5543 5.03575C24.2652 4.74655 23.9629 4.47068 23.6496 4.20752L18.2664 9.59085V11.3237Z" fill="#D80027"/>
</g>
<defs>
<clipPath id="clip0_11_268">
<rect width="28.1818" height="28.1818" fill="white" transform="translate(0.5 0.909092)"/>
</clipPath>
</defs>
</svg>
