<svg width="189" height="26" viewBox="0 0 189 26" fill="none" xmlns="http://www.w3.org/2000/svg">
<path d="M181.143 25.6894C179.536 25.6894 178.147 25.4368 176.976 24.9318C175.805 24.4038 174.887 23.7036 174.221 22.8312C173.555 21.9359 173.165 20.9258 173.05 19.8009H177.871C177.963 20.2141 178.135 20.5929 178.388 20.9372C178.663 21.2586 179.019 21.5226 179.455 21.7293C179.915 21.9359 180.454 22.0392 181.074 22.0392C181.671 22.0392 182.153 21.9588 182.52 21.7981C182.91 21.6145 183.197 21.3849 183.381 21.1094C183.588 20.8339 183.691 20.5355 183.691 20.2141C183.691 19.7549 183.553 19.3991 183.278 19.1466C183.002 18.894 182.601 18.6874 182.072 18.5267C181.544 18.366 180.913 18.2168 180.179 18.0791C179.352 17.8954 178.537 17.6888 177.734 17.4592C176.953 17.2297 176.241 16.9312 175.599 16.5639C174.979 16.1736 174.485 15.6915 174.118 15.1176C173.751 14.5437 173.567 13.832 173.567 12.9826C173.567 11.9495 173.842 11.0197 174.393 10.1933C174.967 9.36681 175.782 8.71253 176.838 8.23043C177.917 7.74832 179.203 7.50727 180.695 7.50727C182.807 7.50727 184.472 7.98938 185.688 8.95358C186.928 9.89482 187.663 11.1804 187.892 12.8104H183.347C183.232 12.3053 182.945 11.9151 182.486 11.6396C182.027 11.3641 181.418 11.2263 180.661 11.2263C179.88 11.2263 179.272 11.3641 178.836 11.6396C178.422 11.9151 178.216 12.2824 178.216 12.7415C178.216 13.04 178.353 13.3154 178.629 13.568C178.904 13.7975 179.295 14.0042 179.8 14.1878C180.328 14.3485 180.971 14.5092 181.728 14.6699C183.083 14.9454 184.265 15.2668 185.275 15.6341C186.285 15.9785 187.077 16.4835 187.651 17.1493C188.225 17.7921 188.512 18.7333 188.512 19.973C188.535 21.075 188.236 22.0621 187.617 22.9345C187.02 23.8069 186.17 24.4841 185.068 24.9662C183.966 25.4483 182.658 25.6894 181.143 25.6894Z" fill="white"/>
<path d="M160.375 25.2762V7.92051H164.645L165.092 11.123C165.529 10.3654 166.057 9.72264 166.676 9.19463C167.296 8.66661 168.019 8.25338 168.846 7.95494C169.672 7.6565 170.568 7.50727 171.532 7.50727V12.6038H169.913C169.225 12.6038 168.582 12.6841 167.985 12.8448C167.411 13.0055 166.906 13.2695 166.47 13.6368C166.057 13.9812 165.735 14.4633 165.506 15.0832C165.299 15.68 165.196 16.4376 165.196 17.3559V25.2762H160.375Z" fill="white"/>
<path d="M148.105 25.6894C146.452 25.6894 144.96 25.3106 143.628 24.553C142.297 23.7725 141.241 22.6935 140.46 21.316C139.702 19.9386 139.324 18.3775 139.324 16.6328C139.324 14.8421 139.702 13.2581 140.46 11.8806C141.241 10.5032 142.297 9.43568 143.628 8.67809C144.96 7.89755 146.463 7.50727 148.139 7.50727C149.815 7.50727 151.319 7.89755 152.65 8.67809C153.982 9.43568 155.026 10.5032 155.784 11.8806C156.564 13.2351 156.955 14.8077 156.955 16.5983C156.955 18.389 156.564 19.973 155.784 21.3505C155.003 22.7049 153.947 23.7725 152.616 24.553C151.307 25.3106 149.804 25.6894 148.105 25.6894ZM148.105 21.5226C148.862 21.5226 149.528 21.339 150.102 20.9717C150.676 20.6044 151.135 20.0534 151.479 19.3188C151.847 18.5841 152.03 17.6773 152.03 16.5983C152.03 15.5193 151.858 14.6125 151.514 13.8779C151.17 13.1433 150.699 12.5923 150.102 12.225C149.528 11.8577 148.874 11.674 148.139 11.674C147.427 11.674 146.773 11.8577 146.176 12.225C145.579 12.5923 145.109 13.1433 144.764 13.8779C144.42 14.6125 144.248 15.5193 144.248 16.5983C144.248 17.6773 144.42 18.5841 144.764 19.3188C145.109 20.0534 145.568 20.6044 146.142 20.9717C146.739 21.339 147.393 21.5226 148.105 21.5226Z" fill="white"/>
<path d="M127.605 25.6894C125.952 25.6894 124.46 25.3106 123.129 24.553C121.797 23.7725 120.741 22.6935 119.96 21.316C119.203 19.9386 118.824 18.3775 118.824 16.6328C118.824 14.8421 119.203 13.2581 119.96 11.8806C120.741 10.5032 121.797 9.43568 123.129 8.67809C124.46 7.89755 125.964 7.50727 127.64 7.50727C129.316 7.50727 130.819 7.89755 132.151 8.67809C133.482 9.43568 134.527 10.5032 135.284 11.8806C136.065 13.2351 136.455 14.8077 136.455 16.5983C136.455 18.389 136.065 19.973 135.284 21.3505C134.504 22.7049 133.448 23.7725 132.116 24.553C130.808 25.3106 129.304 25.6894 127.605 25.6894ZM127.605 21.5226C128.363 21.5226 129.029 21.339 129.602 20.9717C130.176 20.6044 130.636 20.0534 130.98 19.3188C131.347 18.5841 131.531 17.6773 131.531 16.5983C131.531 15.5193 131.359 14.6125 131.014 13.8779C130.67 13.1433 130.199 12.5923 129.602 12.225C129.029 11.8577 128.374 11.674 127.64 11.674C126.928 11.674 126.274 11.8577 125.677 12.225C125.08 12.5923 124.609 13.1433 124.265 13.8779C123.921 14.6125 123.748 15.5193 123.748 16.5983C123.748 17.6773 123.921 18.5841 124.265 19.3188C124.609 20.0534 125.068 20.6044 125.642 20.9717C126.239 21.339 126.894 21.5226 127.605 21.5226Z" fill="white"/>
<path d="M110.611 25.2764V0.482601H115.432V25.2764H110.611Z" fill="white"/>
<path d="M99.0752 25.2764V6.47443C99.0752 5.00517 99.3278 3.83435 99.8328 2.96198C100.338 2.08961 101.038 1.45828 101.933 1.06801C102.852 0.677738 103.931 0.482601 105.17 0.482601H107.34V4.58046H105.928C105.193 4.58046 104.665 4.72968 104.344 5.02813C104.045 5.30361 103.896 5.78572 103.896 6.47443V25.2764H99.0752ZM96.7336 11.9497V7.92074H107.581V11.9497H96.7336Z" fill="#109932"/>
<path d="M77.5152 25.2762V7.92051H81.7508L82.0951 10.7442C82.6231 9.78004 83.3693 8.99949 84.3335 8.40261C85.3206 7.80572 86.5029 7.50727 87.8803 7.50727C89.3037 7.50727 90.5089 7.8172 91.4961 8.43704C92.4833 9.03393 93.2294 9.9063 93.7344 11.0542C94.2624 12.202 94.5265 13.6139 94.5265 15.2898V25.2762H89.7399V15.7374C89.7399 14.4059 89.4529 13.3843 88.879 12.6726C88.328 11.938 87.4442 11.5707 86.2274 11.5707C85.4928 11.5707 84.827 11.7544 84.2301 12.1217C83.6333 12.466 83.1626 12.9711 82.8183 13.6368C82.4969 14.2796 82.3362 15.0717 82.3362 16.0129V25.2762H77.5152Z" fill="white"/>
<path d="M65.2452 25.6894C63.5923 25.6894 62.1 25.3106 60.7685 24.553C59.437 23.7725 58.381 22.6935 57.6004 21.316C56.8428 19.9386 56.464 18.3775 56.464 16.6328C56.464 14.8421 56.8428 13.2581 57.6004 11.8806C58.381 10.5032 59.437 9.43568 60.7685 8.67809C62.1 7.89755 63.6037 7.50727 65.2796 7.50727C66.9555 7.50727 68.4592 7.89755 69.7907 8.67809C71.1222 9.43568 72.1668 10.5032 72.9244 11.8806C73.7049 13.2351 74.0952 14.8077 74.0952 16.5983C74.0952 18.389 73.7049 19.973 72.9244 21.3505C72.1438 22.7049 71.0878 23.7725 69.7563 24.553C68.4477 25.3106 66.944 25.6894 65.2452 25.6894ZM65.2452 21.5226C66.0028 21.5226 66.6685 21.339 67.2424 20.9717C67.8164 20.6044 68.2755 20.0534 68.6199 19.3188C68.9872 18.5841 69.1709 17.6773 69.1709 16.5983C69.1709 15.5193 68.9987 14.6125 68.6543 13.8779C68.31 13.1433 67.8393 12.5923 67.2424 12.225C66.6685 11.8577 66.0142 11.674 65.2796 11.674C64.5679 11.674 63.9137 11.8577 63.3168 12.225C62.7199 12.5923 62.2493 13.1433 61.9049 13.8779C61.5605 14.6125 61.3884 15.5193 61.3884 16.5983C61.3884 17.6773 61.5605 18.5841 61.9049 19.3188C62.2493 20.0534 62.7084 20.6044 63.2823 20.9717C63.8792 21.339 64.5335 21.5226 65.2452 21.5226Z" fill="white"/>
<path d="M48.1539 25.2766V7.92093H52.9749V25.2766H48.1539ZM50.5644 5.6826C49.692 5.6826 48.9804 5.43007 48.4294 4.92502C47.8784 4.397 47.6029 3.7542 47.6029 2.99661C47.6029 2.21606 47.8784 1.57326 48.4294 1.06821C48.9804 0.563147 49.692 0.310617 50.5644 0.310617C51.4368 0.310617 52.1485 0.563147 52.6994 1.06821C53.2504 1.57326 53.5259 2.21606 53.5259 2.99661C53.5259 3.7542 53.2504 4.397 52.6994 4.92502C52.1485 5.43007 51.4368 5.6826 50.5644 5.6826Z" fill="white"/>
<path d="M37.3352 25.6894C35.7282 25.6894 34.3393 25.4368 33.1685 24.9318C31.9977 24.4038 31.0794 23.7036 30.4136 22.8312C29.7479 21.9359 29.3576 20.9258 29.2428 19.8009H34.0638C34.1557 20.2141 34.3278 20.5929 34.5804 20.9372C34.8559 21.2586 35.2117 21.5226 35.6479 21.7293C36.107 21.9359 36.6465 22.0392 37.2664 22.0392C37.8633 22.0392 38.3454 21.9588 38.7127 21.7981C39.1029 21.6145 39.3899 21.3849 39.5736 21.1094C39.7802 20.8339 39.8835 20.5355 39.8835 20.2141C39.8835 19.7549 39.7457 19.3991 39.4703 19.1466C39.1948 18.894 38.793 18.6874 38.265 18.5267C37.737 18.366 37.1057 18.2168 36.371 18.0791C35.5446 17.8954 34.7296 17.6888 33.9261 17.4592C33.1456 17.2297 32.4339 16.9312 31.7911 16.5639C31.1712 16.1736 30.6777 15.6915 30.3103 15.1176C29.943 14.5437 29.7594 13.832 29.7594 12.9826C29.7594 11.9495 30.0349 11.0197 30.5858 10.1933C31.1598 9.36681 31.9747 8.71253 33.0308 8.23043C34.1098 7.74832 35.3954 7.50727 36.8876 7.50727C38.9996 7.50727 40.664 7.98938 41.8808 8.95358C43.1205 9.89482 43.8551 11.1804 44.0847 12.8104H39.5391C39.4243 12.3053 39.1374 11.9151 38.6782 11.6396C38.2191 11.3641 37.6107 11.2263 36.8531 11.2263C36.0726 11.2263 35.4642 11.3641 35.028 11.6396C34.6148 11.9151 34.4082 12.2824 34.4082 12.7415C34.4082 13.04 34.5459 13.3154 34.8214 13.568C35.0969 13.7975 35.4872 14.0042 35.9922 14.1878C36.5203 14.3485 37.1631 14.5092 37.9207 14.6699C39.2751 14.9454 40.4574 15.2668 41.4675 15.6341C42.4777 15.9785 43.2697 16.4835 43.8436 17.1493C44.4175 17.7921 44.7045 18.7333 44.7045 19.973C44.7275 21.075 44.429 22.0621 43.8092 22.9345C43.2123 23.8069 42.3629 24.4841 41.2609 24.9662C40.159 25.4483 38.8504 25.6894 37.3352 25.6894Z" fill="white"/>
<path d="M21.3448 25.2766V7.92093H26.1658V25.2766H21.3448ZM23.7553 5.6826C22.8829 5.6826 22.1713 5.43007 21.6203 4.92502C21.0693 4.397 20.7938 3.7542 20.7938 2.99661C20.7938 2.21606 21.0693 1.57326 21.6203 1.06821C22.1713 0.563147 22.8829 0.310617 23.7553 0.310617C24.6277 0.310617 25.3394 0.563147 25.8903 1.06821C26.4413 1.57326 26.7168 2.21606 26.7168 2.99661C26.7168 3.7542 26.4413 4.397 25.8903 4.92502C25.3394 5.43007 24.6277 5.6826 23.7553 5.6826Z" fill="white"/>
<path d="M6.80162 25.2761L0.499863 7.92046H5.56193L9.76309 20.7306L13.9987 7.92046H18.9919L12.6901 25.2761H6.80162Z" fill="white"/>
</svg>
