<svg width="127" height="27" viewBox="0 0 127 27" fill="none" xmlns="http://www.w3.org/2000/svg">
<g clip-path="url(#clip0_137_78)">
<path d="M63.8165 11.6396V20.6894C63.8165 21.3228 63.9712 21.7732 64.2666 22.0547C64.576 22.3362 65.0824 22.4769 65.7997 22.4769H67.994V26.46H65.0261C61.0455 26.46 59.0622 24.5318 59.0622 20.6472V11.6396H56.8398V7.75507H59.0622V3.13867H63.8165V7.76915H67.994V11.6537H63.8165V11.6396Z" fill="#68EC72"/>
<path d="M17.8073 7.75488V26.4598H13.0531V24.0953C12.4482 24.9116 11.6465 25.5449 10.6759 26.0094C9.69133 26.4738 8.63639 26.699 7.483 26.699C6.02016 26.699 4.7261 26.3894 3.60084 25.7701C2.47558 25.1508 1.58943 24.236 0.956474 23.0397C0.323513 21.8293 0 20.3937 0 18.7329V7.75488H4.7261V18.0433C4.7261 19.5352 5.09182 20.6752 5.8373 21.4633C6.58279 22.2656 7.59553 22.6597 8.87551 22.6597C10.1836 22.6597 11.1964 22.2656 11.9419 21.4633C12.6873 20.6611 13.0531 19.5211 13.0531 18.0433V7.75488H17.8073Z" fill="#082517"/>
<path d="M38.2167 9.59895C39.5952 11.0064 40.2704 12.9627 40.2704 15.4821V26.446H35.5443V16.1154C35.5443 14.6376 35.1785 13.4835 34.4331 12.6953C33.6876 11.8931 32.6748 11.499 31.3948 11.499C30.0867 11.499 29.0599 11.8931 28.3144 12.6953C27.5549 13.4976 27.1892 14.6376 27.1892 16.1154V26.446H22.4631V7.75521H27.1892V10.0775C27.8221 9.27524 28.6239 8.62782 29.5944 8.17744C30.579 7.71298 31.648 7.48779 32.8155 7.48779C35.0519 7.48779 36.8383 8.19151 38.2167 9.59895Z" fill="#082517"/>
<path d="M45.0809 4.74307C44.5323 4.20825 44.251 3.56082 44.251 2.77266C44.251 1.98449 44.5323 1.32299 45.0809 0.802241C45.6294 0.267414 46.3186 0 47.1485 0C47.9784 0 48.6817 0.267414 49.2303 0.788166C49.7788 1.32299 50.0601 1.97042 50.0601 2.75858C50.0601 3.54675 49.7788 4.20825 49.2303 4.729C48.6817 5.26383 47.9925 5.51717 47.1485 5.51717C46.3046 5.51717 45.6294 5.26383 45.0809 4.74307ZM49.4834 7.75499V26.4599H44.7573V7.75499H49.4834Z" fill="#082517"/>
<path d="M59.6389 11.6396V20.6894C59.6389 21.3228 59.7937 21.7732 60.089 22.0547C60.3985 22.3362 60.9049 22.4769 61.6222 22.4769H63.8165V26.46H60.8486C56.868 26.46 54.8847 24.5318 54.8847 20.6472V11.6396H52.6623V7.75507H54.8847V3.13867H59.6389V7.76915H63.8165V11.6537H59.6389V11.6396Z" fill="#082517"/>
<path d="M88.9212 7.75488V26.4598H84.167V24.0953C83.5622 24.9116 82.7604 25.5449 81.7899 26.0094C80.8053 26.4738 79.7503 26.699 78.597 26.699C77.1341 26.699 75.8401 26.3894 74.7148 25.7701C73.5895 25.1508 72.7034 24.236 72.0704 23.0397C71.4234 21.8434 71.114 20.4078 71.114 18.7329V7.75488H75.8401V18.0433C75.8401 19.5352 76.2058 20.6752 76.9513 21.4633C77.6967 22.2656 78.7095 22.6597 79.9895 22.6597C81.2976 22.6597 82.3103 22.2656 83.0558 21.4633C83.8013 20.6611 84.167 19.5211 84.167 18.0433V7.75488H88.9212Z" fill="#082517"/>
<path d="M100.666 8.33226C101.651 7.76928 102.762 7.48779 104.028 7.48779V12.4561H102.776C101.299 12.4561 100.174 12.8079 99.4144 13.4976C98.6548 14.2013 98.2891 15.4117 98.2891 17.1428V26.4601H93.563V7.75521H98.2891V10.6545C98.908 9.66932 99.6957 8.89523 100.666 8.33226Z" fill="#082517"/>
<path d="M122.946 9.59895C124.311 11.0064 125 12.9627 125 15.4821V26.446H120.274V16.1154C120.274 14.6376 119.908 13.4835 119.163 12.6953C118.417 11.8931 117.404 11.499 116.124 11.499C114.816 11.499 113.79 11.8931 113.044 12.6953C112.285 13.4976 111.919 14.6376 111.919 16.1154V26.446H107.193V7.75521H111.919V10.0775C112.552 9.27524 113.354 8.62782 114.324 8.17744C115.309 7.71298 116.378 7.48779 117.545 7.48779C119.782 7.48779 121.582 8.19151 122.946 9.59895Z" fill="#082517"/>
</g>
<defs>
<clipPath id="clip0_137_78">
<rect width="127" height="26.6991" fill="white"/>
</clipPath>
</defs>
</svg>
