<svg width="24" height="24" viewBox="0 0 24 24" fill="none" xmlns="http://www.w3.org/2000/svg">
<path d="M15.3857 4.00781C15.9787 3.97031 16.5723 4.06845 17.1221 4.29395C17.5294 4.47441 17.9064 4.71734 18.2383 5.01465C18.3108 5.08113 18.3791 5.15222 18.4424 5.22754C18.4633 5.24853 18.4898 5.26429 18.5186 5.27148C18.5472 5.27859 18.5772 5.27715 18.6055 5.26855C19.4191 5.06553 20.204 4.76066 20.9414 4.36133C20.9574 4.3526 20.9759 4.34863 20.9941 4.34863C21.0122 4.3487 21.0301 4.3527 21.0459 4.36133C21.0775 4.38389 21.0462 4.42921 21.0459 4.46094C20.9088 4.88828 20.6935 5.28691 20.4111 5.63574C20.2252 5.86701 19.7579 6.43851 19.4404 6.49316C20.1194 6.39123 20.7824 6.20209 21.4131 5.93066C21.4993 5.89438 21.499 5.88118 21.499 5.94922C21.5047 6.06773 21.4662 6.18396 21.3906 6.27539C20.9534 6.88903 20.4293 7.43629 19.835 7.89941C19.7488 7.96291 19.5986 8.03574 19.5986 8.1582C19.5986 11.3785 18.7733 14.5945 16.4238 16.9258C13.4349 19.8964 8.95382 20.7039 4.97168 19.6064C4.20272 19.3865 3.45996 19.0822 2.75781 18.6992C2.52197 18.5722 2.29514 18.4407 2.06836 18.291C2.01851 18.2457 1.97339 18.1956 2.01855 18.1729C2.06391 18.1502 2.10533 18.1456 2.28223 18.1729C3.40361 18.2725 4.53324 18.1267 5.59277 17.7461C6.17338 17.5465 7.43901 17.1613 7.75195 16.5898L7.7793 16.5625C7.61601 16.5262 7.47034 16.5266 7.3252 16.5039C6.26386 16.1955 4.81711 15.6413 4.15039 13.8271C4.10984 13.7231 4.15106 13.6639 4.25977 13.6865C4.76504 13.755 5.27803 13.74 5.77832 13.6416C5.60262 13.6067 5.43128 13.5529 5.2666 13.4824C4.59035 13.209 3.99803 12.7615 3.55176 12.1846C3.10558 11.6077 2.82122 10.9224 2.72656 10.1992C2.7137 10.0483 2.7137 9.89603 2.72656 9.74512C2.7312 9.63662 2.78056 9.60526 2.87109 9.66406C3.35412 9.91004 3.88216 10.0563 4.42285 10.0947C4.2505 9.95866 4.08648 9.81374 3.92773 9.66406C2.74861 8.54375 2.29115 6.27601 3.23438 4.84277C3.31148 4.73392 3.36081 4.73393 3.45605 4.84277C5.62407 7.3056 8.27786 8.45245 11.5117 8.92871C11.5933 8.94231 11.5938 8.92908 11.5938 8.83398C11.4985 8.27722 11.5125 7.70675 11.6348 7.15527C11.783 6.5758 12.0531 6.0346 12.4277 5.56836C12.7841 5.11519 13.2288 4.73803 13.7344 4.46094C14.2477 4.19818 14.8102 4.04416 15.3857 4.00781Z" fill="#5C5F66"/>
</svg>
