<svg width="24" height="24" viewBox="0 0 24 24" fill="none" xmlns="http://www.w3.org/2000/svg">
<path d="M11.751 2C14.3989 2 14.7319 2.01135 15.7715 2.05859C16.8085 2.10508 17.5172 2.27087 18.1377 2.51172C18.778 2.76048 19.3224 3.0934 19.8643 3.63574C20.4059 4.17798 20.7397 4.72076 20.9893 5.36133C21.2303 5.98038 21.3941 6.6901 21.4414 7.72754C21.4887 8.76613 21.5 9.09859 21.5 11.7441C21.5 14.3902 21.4887 14.7222 21.4414 15.7617C21.3949 16.7988 21.2302 17.5076 20.9893 18.127C20.7397 18.7677 20.4069 19.312 19.8643 19.8535C19.3216 20.395 18.7778 20.7281 18.1367 20.9775C17.517 21.2184 16.8083 21.3824 15.7705 21.4297C14.7309 21.4777 14.3979 21.4893 11.75 21.4893C9.10246 21.4893 8.77059 21.4769 7.73047 21.4297C6.69274 21.3825 5.98474 21.2183 5.36426 20.9775C4.72279 20.7281 4.17928 20.3947 3.63672 19.8535C3.09413 19.3123 2.76063 18.7677 2.51172 18.127C2.27077 17.5076 2.10585 16.799 2.05859 15.7617C2.01056 14.723 2 14.3902 2 11.7441C2 9.09862 2.01057 8.7661 2.05859 7.72754C2.10586 6.69017 2.27069 5.98077 2.51172 5.36133C2.76061 4.72036 3.09414 4.17713 3.63672 3.63574C4.17939 3.09426 4.72276 2.76048 5.36426 2.51172C5.98359 2.27091 6.69269 2.10583 7.73047 2.05859C8.77062 2.01057 9.10326 2 11.751 2ZM11.75 3.75586C9.14794 3.75586 8.83902 3.76527 7.81152 3.8125C6.8612 3.85567 6.34419 4.01371 6.00098 4.14746C5.545 4.32379 5.21992 4.53472 4.87891 4.87598C4.53788 5.21727 4.32664 5.54212 4.14941 5.99707C4.01682 6.34109 3.85774 6.8567 3.81445 7.80664C3.76797 8.83459 3.75781 9.14232 3.75781 11.7441C3.75781 14.3464 3.76718 14.6555 3.81445 15.6826C3.85767 16.6326 4.01557 17.1492 4.14941 17.4922C4.32585 17.9471 4.53743 18.2715 4.87891 18.6123C5.2204 18.9531 5.54575 19.1637 6.00098 19.3408C6.34435 19.4745 6.86114 19.6335 7.81152 19.6768C8.83868 19.724 9.1468 19.7334 11.75 19.7334C14.3536 19.7334 14.6629 19.724 15.6904 19.6768C16.6408 19.6336 17.1578 19.4746 17.501 19.3408C17.9562 19.1637 18.282 18.9528 18.623 18.6123C18.9641 18.2718 19.1753 17.9471 19.3525 17.4922C19.4855 17.149 19.6442 16.6326 19.6875 15.6826C19.7348 14.6546 19.7441 14.3464 19.7441 11.7441C19.7441 9.14232 19.7348 8.83459 19.6875 7.80664C19.6443 6.8567 19.4864 6.34008 19.3525 5.99707C19.1753 5.54212 18.9645 5.2168 18.623 4.87598C18.2816 4.53518 17.9562 4.32379 17.501 4.14746C17.1567 4.01496 16.6408 3.85575 15.6904 3.8125C14.662 3.76605 14.3524 3.75586 11.75 3.75586ZM11.75 6.74121C14.5151 6.74121 16.7566 8.98077 16.7568 11.7441C16.7568 14.5077 14.5152 16.748 11.75 16.748C8.98497 16.7478 6.74414 14.5076 6.74414 11.7441C6.74436 8.9809 8.9851 6.74142 11.75 6.74121ZM11.75 8.49609C9.95538 8.4963 8.50119 9.9506 8.50098 11.7441C8.50098 13.5379 9.95525 14.993 11.75 14.9932C13.5449 14.9932 15.001 13.538 15.001 11.7441C15.0008 9.95047 13.5448 8.49609 11.75 8.49609ZM16.9551 5.37402C17.1865 5.37412 17.4131 5.44272 17.6055 5.57129C17.7978 5.69981 17.9476 5.8821 18.0361 6.0957C18.1246 6.30941 18.1478 6.54467 18.1025 6.77148C18.0573 6.99828 17.9459 7.20666 17.7822 7.37012C17.6187 7.53342 17.4103 7.64436 17.1836 7.68945C16.9566 7.73448 16.7206 7.71164 16.5068 7.62305C16.2933 7.53448 16.1109 7.38454 15.9824 7.19238C15.8539 7.00003 15.7851 6.77327 15.7852 6.54199C15.7855 6.23218 15.9087 5.93487 16.1279 5.71582C16.3473 5.49671 16.645 5.37423 16.9551 5.37402Z" fill="#5C5F66"/>
</svg>
