<svg width="24" height="24" viewBox="0 0 24 24" fill="none" xmlns="http://www.w3.org/2000/svg">
<path d="M20.0586 2C20.8545 2 21.4998 2.62564 21.5 3.39648V20.1035C21.4999 20.8747 20.8545 21.5 20.0586 21.5H3.44141C2.64579 21.5 2 20.8746 2 20.1035V3.39648C2.0002 2.62564 2.64584 2 3.44141 2H20.0586ZM5.00781 9.54004V18.3193H7.92578V9.54004H5.00781ZM15.0889 9.33398C13.5411 9.33398 12.8469 10.1851 12.459 10.7832V9.54004H9.54102C9.5791 10.3636 9.54102 18.3193 9.54102 18.3193H12.459V13.417C12.459 13.155 12.4776 12.8922 12.5547 12.7051C12.7655 12.1807 13.2456 11.6378 14.0518 11.6377C15.1073 11.6377 15.5303 12.4428 15.5303 13.623V18.3193H18.4482V13.2852C18.4482 10.589 17.0085 9.33407 15.0889 9.33398ZM6.48633 5.30762C5.48783 5.30777 4.83594 5.96371 4.83594 6.8252C4.83606 7.66754 5.469 8.3418 6.44824 8.3418H6.46777C7.48479 8.3416 8.11808 7.66745 8.11816 6.8252C8.09912 5.96354 7.48433 5.30762 6.48633 5.30762Z" fill="#5C5F66"/>
</svg>
