<svg width="40" height="40" viewBox="0 0 40 40" fill="none" xmlns="http://www.w3.org/2000/svg">
<path fill-rule="evenodd" clip-rule="evenodd" d="M34.5834 11.6667C34.5834 11.9982 34.4517 12.3161 34.2173 12.5506C33.9829 12.785 33.6649 12.9167 33.3334 12.9167H6.66675C6.33523 12.9167 6.01728 12.785 5.78286 12.5506C5.54844 12.3161 5.41675 11.9982 5.41675 11.6667C5.41675 11.3351 5.54844 11.0172 5.78286 10.7828C6.01728 10.5484 6.33523 10.4167 6.66675 10.4167H33.3334C33.6649 10.4167 33.9829 10.5484 34.2173 10.7828C34.4517 11.0172 34.5834 11.3351 34.5834 11.6667ZM34.5834 20C34.5834 20.3315 34.4517 20.6495 34.2173 20.8839C33.9829 21.1183 33.6649 21.25 33.3334 21.25H6.66675C6.33523 21.25 6.01728 21.1183 5.78286 20.8839C5.54844 20.6495 5.41675 20.3315 5.41675 20C5.41675 19.6685 5.54844 19.3505 5.78286 19.1161C6.01728 18.8817 6.33523 18.75 6.66675 18.75H33.3334C33.6649 18.75 33.9829 18.8817 34.2173 19.1161C34.4517 19.3505 34.5834 19.6685 34.5834 20ZM34.5834 28.3333C34.5834 28.6649 34.4517 28.9828 34.2173 29.2172C33.9829 29.4516 33.6649 29.5833 33.3334 29.5833H6.66675C6.33523 29.5833 6.01728 29.4516 5.78286 29.2172C5.54844 28.9828 5.41675 28.6649 5.41675 28.3333C5.41675 28.0018 5.54844 27.6839 5.78286 27.4494C6.01728 27.215 6.33523 27.0833 6.66675 27.0833H33.3334C33.6649 27.0833 33.9829 27.215 34.2173 27.4494C34.4517 27.6839 34.5834 28.0018 34.5834 28.3333Z" fill="white"/>
</svg>
