<svg width="30" height="28" viewBox="0 0 30 28" fill="none" xmlns="http://www.w3.org/2000/svg">
<path d="M24.9571 18.956V21.956C24.9582 22.2345 24.9012 22.5102 24.7896 22.7653C24.6781 23.0205 24.5144 23.2496 24.3092 23.4379C24.104 23.6261 23.8617 23.7695 23.5979 23.8587C23.334 23.9479 23.0545 23.9811 22.7771 23.956C19.7 23.6216 16.7441 22.5701 14.1471 20.886C11.7309 19.3507 9.68245 17.3022 8.14712 14.886C6.4571 12.2772 5.40536 9.30698 5.07712 6.21599C5.05213 5.93946 5.08499 5.66075 5.17362 5.39761C5.26224 5.13448 5.40469 4.89268 5.59188 4.68761C5.77908 4.48254 6.00692 4.3187 6.26091 4.20651C6.51489 4.09432 6.78946 4.03625 7.06712 4.03599H10.0671C10.5524 4.03121 11.0229 4.20307 11.3909 4.51952C11.7588 4.83598 11.9992 5.27544 12.0671 5.75599C12.1937 6.71606 12.4286 7.65872 12.7671 8.56599C12.9017 8.92391 12.9308 9.3129 12.851 9.68687C12.7713 10.0608 12.586 10.4041 12.3171 10.676L11.0471 11.946C12.4707 14.4495 14.5436 16.5224 17.0471 17.946L18.3171 16.676C18.589 16.4071 18.9323 16.2218 19.3062 16.1421C19.6802 16.0623 20.0692 16.0914 20.4271 16.226C21.3344 16.5645 22.2771 16.7994 23.2371 16.926C23.7229 16.9945 24.1665 17.2392 24.4837 17.6135C24.8008 17.9878 24.9693 18.4656 24.9571 18.956Z" stroke="white" stroke-width="2" stroke-linecap="round" stroke-linejoin="round"/>
</svg>
