<svg width="21" height="21" viewBox="0 0 21 21" fill="none" xmlns="http://www.w3.org/2000/svg">
<path d="M18.2131 20.1966L13.9244 15.9079C13.2501 16.4923 12.4634 16.9474 11.5643 17.2734C10.6653 17.5993 9.71 17.7622 8.69855 17.7622C6.27104 17.7622 4.21441 16.9193 2.52865 15.2336C0.842882 13.5478 0 11.5137 0 9.13111C0 6.74857 0.842882 4.71441 2.52865 3.02865C4.21441 1.34288 6.25981 0.5 8.66483 0.5C11.0474 0.5 13.0759 1.34288 14.7504 3.02865C16.425 4.71441 17.2622 6.74857 17.2622 9.13111C17.2622 10.0976 17.1049 11.0304 16.7902 11.9295C16.4755 12.8286 16.0035 13.6714 15.3742 14.4581L19.7303 18.7468C19.9326 18.9266 20.0337 19.157 20.0337 19.438C20.0337 19.7189 19.9213 19.9718 19.6966 20.1966C19.4943 20.3989 19.247 20.5 18.9548 20.5C18.6626 20.5 18.4154 20.3989 18.2131 20.1966ZM8.66483 15.7393C10.4855 15.7393 12.0364 15.0931 13.3175 13.8007C14.5987 12.5083 15.2393 10.9517 15.2393 9.13111C15.2393 7.31049 14.5987 5.75397 13.3175 4.46155C12.0364 3.16913 10.4855 2.52292 8.66483 2.52292C6.82173 2.52292 5.25397 3.16913 3.96155 4.46155C2.66913 5.75397 2.02292 7.31049 2.02292 9.13111C2.02292 10.9517 2.66913 12.5083 3.96155 13.8007C5.25397 15.0931 6.82173 15.7393 8.66483 15.7393Z" fill="#5E5E5E"/>
</svg>
