<svg width="277" height="30" viewBox="0 0 277 30" fill="none" xmlns="http://www.w3.org/2000/svg">
<path d="M18.9219 15.8823C17.2183 20.8105 12.5335 27.3206 9.06547 28.4157C8.70042 26.8338 8.57874 21.8448 8.57874 20.9322V14.6654C8.57874 12.9618 8.94379 6.6951 9.73474 5.23489H0C0.790947 6.6951 1.156 12.9618 1.156 14.6654V19.5936C1.156 21.2364 0.790947 27.3814 0 28.9025H17.7659C17.8876 28.9025 17.9484 28.8416 17.9484 28.7199C18.0701 27.6248 18.7394 20.1412 19.1653 15.9431C19.1653 15.8214 18.9827 15.7606 18.9219 15.8823Z" fill="black"/>
<path d="M28.0244 24.6435C28.0244 24.6435 27.9636 11.8058 27.9636 10.0414C26.3209 11.9275 22.8529 12.2317 20.9059 12.2317C20.0541 12.2317 19.4457 12.1709 19.4457 12.1709C20.115 13.5094 20.6017 14.6654 20.6017 16.369V24.6435C20.6017 26.2863 20.2367 27.3814 19.4457 28.8416H29.1804C28.3895 27.3814 28.0244 26.2863 28.0244 24.6435ZM24.1914 9.79805C26.26 9.79805 28.0244 8.03363 28.0244 5.965C28.0244 3.83552 26.26 2.13194 24.1914 2.13194C22.0619 2.13194 20.2975 3.83552 20.2975 5.965C20.2975 8.03363 22.0619 9.79805 24.1914 9.79805Z" fill="black"/>
<path d="M29.4894 10.8324C29.4894 11.0757 29.6719 11.2583 29.8545 11.2583H32.0448C32.0448 11.6233 31.9839 11.9884 31.9839 12.4143V24.6435C31.9839 26.2863 31.6189 27.3814 30.8279 28.8416H40.5627C39.8326 27.3814 39.4067 26.2863 39.4067 24.6435V11.2583H41.4753C41.7187 11.2583 41.8403 11.0757 41.8403 10.8324V10.6498C41.8403 10.4065 41.7187 10.2239 41.4753 10.2239H39.2241C38.6766 8.09447 37.338 4.26142 40.1368 4.26142C40.1976 4.26142 40.3193 4.26142 40.441 4.26142C42.8747 4.44394 44.4566 8.39868 44.5174 10.7715C44.5174 10.8932 44.6391 10.954 44.7608 10.8324C45.4909 9.91973 47.8637 7.60773 48.6547 6.6951C48.7155 6.57342 48.7155 6.39089 48.6547 6.26921C47.1945 4.07889 43.5439 2.86205 40.6844 2.86205C40.3801 2.86205 40.1368 2.92289 39.8934 2.92289C36.6079 3.10542 32.8357 4.3831 32.1665 10.2239H29.8545C29.6719 10.2239 29.4894 10.4065 29.4894 10.6498V10.8324Z" fill="black"/>
<path d="M50.9115 15.6997C50.9724 13.7528 51.8242 10.6498 53.7103 10.7107C55.5355 10.7715 56.2656 13.9353 55.9614 15.5172C55.5355 18.3159 53.4669 20.0804 51.9458 20.5671C51.2157 19.2286 50.8507 17.525 50.9115 15.6997ZM63.0799 22.514C61.7414 23.8526 59.8553 24.4002 58.0301 24.4002C55.5355 24.4002 53.5277 23.1833 52.3109 21.2364C55.2313 20.993 61.3764 19.5936 61.9848 15.4564C62.4715 12.4143 59.1861 9.67636 54.8663 9.67636C54.6229 9.67636 54.3187 9.73721 54.0753 9.73721C47.0785 10.1023 44.5231 15.4564 44.7665 20.0195C45.0707 25.982 49.3296 29.3892 55.1096 29.3892C59.3077 29.2067 62.9583 26.2863 63.3842 22.6357C63.3842 22.514 63.3233 22.4532 63.2016 22.4532C63.2016 22.4532 63.1408 22.4532 63.0799 22.514Z" fill="black"/>
<path d="M94.9992 21.6014C93.9041 23.9134 91.1662 25.982 88.55 25.982C82.7091 25.7387 80.8839 18.4985 81.7357 11.6842C81.979 9.49384 83.135 5.84331 85.8121 5.84331C88.2458 6.02584 88.9759 11.0149 88.6717 15.2738C88.6717 15.578 88.8542 15.8214 89.1584 15.8214C89.2192 15.8214 89.2801 15.7606 89.3409 15.7606C90.862 15.0305 94.1474 12.7793 95.3034 12.1709C95.486 12.0492 95.5468 11.8058 95.486 11.6233C93.9649 6.93847 90.2535 4.62647 85.447 4.62647C78.3285 4.62647 74.1304 10.2848 73.7045 16.1865C73.2786 23.0616 77.6592 28.8416 85.1428 29.45C85.3862 29.45 85.6904 29.45 85.9338 29.45C90.7403 29.45 95.1209 26.4688 96.0335 22.149C96.2161 21.4189 95.9727 21.1147 95.6685 21.1147C95.4251 21.1147 95.1818 21.2972 94.9992 21.6014Z" fill="black"/>
<path d="M106.768 28.5983C105.186 28.5983 104.517 24.4002 104.456 19.5936C104.396 14.7871 104.943 10.589 106.647 10.589C108.35 10.5282 108.898 14.7263 108.959 19.5328C109.02 24.3393 108.35 28.5983 106.768 28.5983ZM109.324 10.1023C108.411 9.85889 107.498 9.73721 106.647 9.73721C102.266 9.73721 98.3113 12.5359 97.0945 16.8557C95.6343 22.0882 98.7981 27.5639 104.091 29.0242C105.004 29.2675 105.917 29.3892 106.829 29.3892C111.149 29.3892 115.104 26.5905 116.321 22.2707C117.781 17.0383 114.617 11.6233 109.324 10.1023Z" fill="black"/>
<path d="M125.654 26.8947C124.193 26.5905 123.828 24.8869 123.95 23.2442C124.193 19.046 127.54 17.1599 128.939 16.7949V24.461C128.939 24.6435 128.939 24.826 129 25.0086C128.27 25.982 127.114 26.9555 126.08 26.9555C125.897 26.9555 125.775 26.9555 125.654 26.8947ZM137.275 28.9025C136.544 27.4423 136.118 26.4688 136.118 24.8869V18.681C136.118 10.8932 130.156 9.73721 126.505 9.73721C124.498 9.73721 121.09 10.7715 119.509 13.1444C119.387 13.3269 119.387 13.5094 119.509 13.6311C119.995 14.3004 121.273 15.9431 121.821 16.734C121.942 16.8557 122.064 16.7949 122.064 16.6732C122.125 14.3004 123.403 11.1974 125.836 10.954C125.958 10.954 126.08 10.954 126.201 10.954C129.426 10.954 129.061 15.1522 128.939 16.2473C127.661 16.369 117.318 18.1334 117.318 24.8869C117.318 28.4157 120.117 29.3892 123.159 29.3892C126.14 29.2067 128.209 27.138 129.061 25.7387C129.304 27.5639 130.339 28.9025 132.529 28.9025H137.275Z" fill="black"/>
<path d="M156.153 23.4267C154.936 24.4002 153.293 24.826 151.711 24.826C146.966 24.826 144.045 20.5671 144.775 15.3347C145.019 13.3877 146.235 10.5282 148.122 10.6498C150.068 10.8324 151.468 15.3955 151.224 18.7418C151.224 18.9852 151.407 19.1677 151.59 19.1677C151.65 19.1677 151.711 19.1677 151.772 19.1069C153.111 18.1943 154.875 16.4907 155.788 15.6997C155.97 15.578 156.031 15.4564 155.97 15.2738C154.571 11.8058 151.407 9.73721 147.696 9.73721C141.976 9.73721 138.569 14.2395 138.204 18.9244C137.9 24.3393 141.429 28.9633 147.513 29.3892C151.346 29.3892 155.483 27.7465 156.457 23.6092C156.457 23.4267 156.274 23.305 156.153 23.4267Z" fill="black"/>
<path d="M167.109 28.8416C166.318 27.3814 165.953 26.2863 165.953 24.6435V17.1599C165.831 14.7263 166.561 11.6842 168.508 11.3799C171.185 11.3799 171.368 14.4829 171.368 16.5515V24.461C171.368 27.0164 172.22 28.8416 174.958 28.8416H179.703C178.912 27.5031 178.547 26.4688 178.547 24.8869V18.7418C178.547 13.6311 176.235 9.67636 170.76 9.67636C168.387 9.79805 166.744 11.1366 165.953 12.901L165.892 2.86205L157.374 5.29573C158.165 6.75594 158.53 7.8511 158.53 9.49384V24.6435C158.53 26.2863 158.165 27.3814 157.374 28.8416H167.109Z" fill="black"/>
<path d="M191.806 14.6654V19.5328C191.806 21.2364 191.441 27.3814 190.65 28.9025H200.384C199.654 27.3814 199.228 21.2364 199.228 19.5328V19.1069C201.54 19.4719 203.366 26.7122 203.731 27.5031C203.974 28.0507 203.852 28.6591 203.487 28.9025H214.743C213.222 27.8073 212.37 26.773 211.64 25.7387C209.997 23.4267 207.077 18.9852 206.59 18.1943C209.754 17.1599 212.188 15.2738 212.188 11.9884C212.188 6.6951 206.225 5.23489 199.533 5.23489H190.65C191.441 6.6951 191.806 12.9618 191.806 14.6654ZM199.289 6.02584C199.472 5.965 199.715 5.965 199.898 5.965C203.183 5.965 204.765 8.45952 204.765 11.745C204.826 15.3955 203.001 18.1943 199.837 18.4376H199.228L199.289 6.02584Z" fill="black"/>
<path d="M218.862 15.6997C218.923 13.7528 219.774 10.6498 221.661 10.7107C223.486 10.7715 224.216 13.9353 223.912 15.5172C223.486 18.3159 221.417 20.0804 219.896 20.5671C219.166 19.2286 218.801 17.525 218.862 15.6997ZM231.03 22.514C229.692 23.8526 227.806 24.4002 225.98 24.4002C223.486 24.4002 221.478 23.1833 220.261 21.2364C223.182 20.993 229.327 19.5936 229.935 15.4564C230.422 12.4143 227.136 9.67636 222.817 9.67636C222.573 9.67636 222.269 9.73721 222.026 9.73721C215.029 10.1023 212.473 15.4564 212.717 20.0195C213.021 25.982 217.28 29.3892 223.06 29.3892C227.258 29.2067 230.909 26.2863 231.335 22.6357C231.335 22.514 231.274 22.4532 231.152 22.4532C231.152 22.4532 231.091 22.4532 231.03 22.514Z" fill="black"/>
<path d="M231.635 5.5391C231.635 8.03363 233.764 9.98057 236.076 9.98057C239.058 9.98057 240.579 7.66857 240.7 6.81679C240.7 6.6951 240.64 6.57342 240.518 6.57342C239.605 6.57342 239.058 5.66079 239.058 4.809C239.058 3.89636 239.605 2.92289 240.883 2.92289C241.005 2.92289 241.126 2.98373 241.309 2.98373C243.925 3.34879 245.568 6.20836 245.568 10.2239V19.4719C245.568 21.1147 245.75 27.929 244.412 28.7808H254.146C253.416 28.5374 253.173 25.7387 253.051 23.2442C254.268 24.9477 255.911 27.138 256.093 27.4423C256.398 27.929 256.154 28.5983 255.85 28.8416H266.923C265.767 27.7465 264.672 26.5905 263.82 25.6778C262.238 23.9743 257.675 17.89 256.093 15.8214C257.432 13.7528 258.831 12.0492 259.744 11.9275C259.926 11.9275 260.048 11.8667 260.17 11.8667C262.117 11.8667 261.873 14.7263 261.934 16.9774C261.934 17.0991 262.056 17.0991 262.178 17.0383C262.725 16.2473 265.341 12.1709 265.828 11.5016C265.889 11.3799 265.95 11.1974 265.828 11.0149C264.855 9.73721 263.516 9.37215 262.36 9.37215C262.056 9.37215 261.691 9.37215 261.448 9.43299C259.196 9.85889 256.641 12.901 252.93 19.1069C252.93 17.0991 252.747 7.48605 254.146 5.11321C253.416 5.29573 252.2 5.47826 252.017 5.5391C251.713 5.59994 251.469 5.59994 251.165 5.59994C246.724 5.59994 243.864 1.15847 238.449 0.610892C238.084 0.550049 237.719 0.550049 237.415 0.550049C234.069 0.550049 231.635 2.37531 231.635 5.5391ZM241.856 28.8416C241.126 27.3206 240.7 26.2254 240.7 24.5827V9.98057C238.997 11.8667 235.59 12.1709 233.643 12.1709C232.73 12.1709 232.182 12.11 232.182 12.11C232.791 13.4486 233.278 14.6046 233.278 16.3082V24.5827C233.278 26.2254 232.913 27.3206 232.122 28.8416H241.856Z" fill="black"/>
<path d="M274.884 24.6435C274.884 24.6435 274.823 11.8058 274.823 10.0414C273.181 11.9275 269.713 12.2317 267.766 12.2317C266.914 12.2317 266.305 12.1709 266.305 12.1709C266.975 13.5094 267.461 14.6654 267.461 16.369V24.6435C267.461 26.2863 267.096 27.3814 266.305 28.8416H276.04C275.249 27.3814 274.884 26.2863 274.884 24.6435ZM271.051 9.79805C273.12 9.79805 274.884 8.03363 274.884 5.965C274.884 3.83552 273.12 2.13194 271.051 2.13194C268.922 2.13194 267.157 3.83552 267.157 5.965C267.157 8.03363 268.922 9.79805 271.051 9.79805Z" fill="black"/>
</svg>
