<svg width="56" height="56" viewBox="0 0 56 56" fill="none" xmlns="http://www.w3.org/2000/svg">
<path d="M7 18.2C7 14.2796 7 12.3194 7.76295 10.8221C8.43407 9.50493 9.50493 8.43407 10.8221 7.76295C12.3194 7 14.2796 7 18.2 7H37.8C41.7204 7 43.6805 7 45.1779 7.76295C46.4951 8.43407 47.5659 9.50493 48.237 10.8221C49 12.3194 49 14.2796 49 18.2V30.8C49 34.7204 49 36.6806 48.237 38.1779C47.5659 39.4951 46.4951 40.5659 45.1779 41.237C43.6805 42 41.7204 42 37.8 42H22.5954C21.1393 42 20.4112 42 19.7148 42.1429C19.097 42.2697 18.4991 42.4794 17.9375 42.7664C17.3044 43.0898 16.7359 43.5446 15.5988 44.4543L10.0328 48.9071C9.0619 49.6838 8.57646 50.0722 8.16793 50.0726C7.81263 50.073 7.47652 49.9114 7.25487 49.6338C7 49.3145 7 48.6928 7 47.4495V18.2Z" stroke="black" stroke-width="2" stroke-linecap="round" stroke-linejoin="round"/>
</svg>
