<svg width="24" height="25" viewBox="0 0 24 25" fill="none" xmlns="http://www.w3.org/2000/svg">
<path d="M7.55016 22.6501C16.6045 22.6501 21.5583 15.1469 21.5583 8.64201C21.5583 8.43107 21.5536 8.21544 21.5442 8.00451C22.5079 7.30761 23.3395 6.4444 24 5.45544C23.1025 5.85475 22.1496 6.11553 21.1739 6.22888C22.2013 5.61305 22.9705 4.64562 23.3391 3.50591C22.3726 4.0787 21.3156 4.48276 20.2134 4.70076C19.4708 3.91171 18.489 3.38926 17.4197 3.2142C16.3504 3.03913 15.2532 3.2212 14.2977 3.73224C13.3423 4.24329 12.5818 5.05485 12.1338 6.04146C11.6859 7.02806 11.5754 8.13476 11.8195 9.19044C9.86249 9.09224 7.94794 8.58385 6.19998 7.69825C4.45203 6.81264 2.90969 5.56958 1.67297 4.04966C1.0444 5.13339 0.852057 6.41579 1.13503 7.63624C1.418 8.85668 2.15506 9.92359 3.19641 10.6201C2.41463 10.5953 1.64998 10.3848 0.965625 10.0061V10.067C0.964925 11.2043 1.3581 12.3067 2.07831 13.1869C2.79852 14.0671 3.80132 14.6707 4.91625 14.8951C4.19206 15.0933 3.43198 15.1221 2.69484 14.9795C3.00945 15.9576 3.62157 16.813 4.44577 17.4265C5.26997 18.0399 6.26512 18.3807 7.29234 18.4014C5.54842 19.7713 3.39417 20.5143 1.17656 20.5108C0.783287 20.5102 0.390399 20.4861 0 20.4386C2.25286 21.8839 4.87353 22.6515 7.55016 22.6501Z" fill="#FDF8F2"/>
</svg>
